<svg width="509" height="306" viewBox="0 0 509 306" fill="none" xmlns="http://www.w3.org/2000/svg">
<path d="M18.8082 122.111L-39.2946 64.2331L-33.524 48.4042L48.1955 41.5004L42.0509 58.3553L-18.7682 62.5839L25.0062 105.109L18.8082 122.111ZM78.3963 158.446C67.746 154.563 60.6574 146.832 57.1305 135.251L52.7491 147.27L35.0148 140.804L74.0199 33.8125L91.7541 40.2777L76.259 82.7813C86.6251 75.6016 97.1334 73.953 107.784 77.8357C117.555 81.3978 124.671 88.1432 129.132 98.0717C133.629 107.903 133.615 119.023 129.091 131.432C124.639 143.645 117.51 152.116 107.706 156.844C97.9371 161.474 88.1673 162.008 78.3963 158.446ZM79.9029 141.561C86.1563 143.84 92.2208 143.45 98.0965 140.389C104.07 137.364 108.428 132.09 111.171 124.566C113.842 117.238 113.866 110.494 111.241 104.335C108.616 98.1749 104.225 93.973 98.0696 91.7289C91.9139 89.4848 85.7338 89.8884 79.5294 92.9399C73.4226 96.027 69.0335 101.235 66.3619 108.563C63.7259 115.793 63.7515 122.555 66.4386 128.848C69.2591 135.079 73.7472 139.317 79.9029 141.561ZM164.951 190.167C153.226 185.892 144.88 178.421 139.913 167.755C134.946 157.089 134.51 146.137 138.607 134.9C142.703 123.664 150.133 115.58 160.897 110.648C171.697 105.619 182.96 105.242 194.685 109.516C206.41 113.791 214.756 121.261 219.723 131.928C224.788 142.63 225.254 153.648 221.122 164.982C217.061 176.121 209.631 184.205 198.831 189.235C188.067 194.166 176.774 194.477 164.951 190.167ZM170.854 174.884C177.889 177.449 184.429 177.121 190.474 173.901C196.519 170.68 200.823 165.552 203.388 158.517C205.917 151.58 205.807 144.898 203.058 138.472C200.344 131.948 195.568 127.439 188.728 124.945C181.791 122.416 175.3 122.762 169.255 125.982C163.21 129.203 158.906 134.331 156.341 141.366C153.847 148.205 153.957 154.887 156.671 161.411C159.385 167.935 164.112 172.426 170.854 174.884ZM252.097 221.77C242.423 218.244 235.338 211.565 230.842 201.734C226.38 191.806 226.412 180.637 230.936 168.228C235.424 155.917 242.503 147.428 252.174 142.762C261.943 138.132 271.713 137.598 281.484 141.16C292.037 145.007 299.174 152.757 302.896 164.408L318.071 122.784L335.805 129.249L296.8 236.241L279.066 229.776L283.768 216.878C273.402 224.058 262.845 225.689 252.097 221.77ZM248.64 195.272C251.362 201.467 255.802 205.687 261.957 207.931C268.113 210.175 274.244 209.753 280.351 206.666C286.458 203.579 290.847 198.371 293.518 191.043C296.154 183.813 296.111 177.1 293.388 170.905C290.701 164.612 286.28 160.343 280.124 158.099C273.871 155.819 267.757 156.192 261.784 159.217C255.846 162.144 251.488 167.418 248.71 175.04C246.038 182.368 246.015 189.112 248.64 195.272ZM321.643 272.363C315.194 270.012 309.657 266.222 305.032 260.994L315.85 249.994C318.753 253.266 321.865 255.507 325.187 256.719C327.728 257.645 330.078 257.727 332.238 256.964C334.362 256.3 336.762 254.573 339.439 251.786L335.407 162.645L354.314 169.537L355.353 235.005L396.377 184.872L414.845 191.605L355.053 259.968C349.041 266.743 343.542 271.048 338.555 272.883C333.534 274.816 327.896 274.642 321.643 272.363ZM404.041 262.551L410.185 245.697L471.004 241.468L427.23 198.943L433.428 181.941L491.531 239.819L485.76 255.648L404.041 262.551Z" fill="white"/>
<path d="M18.8082 122.111L18.5259 122.394L18.9695 122.836L19.184 122.248L18.8082 122.111ZM-39.2946 64.2331L-39.6704 64.0961L-39.7579 64.3362L-39.5769 64.5165L-39.2946 64.2331ZM-33.524 48.4042L-33.5577 48.0056L-33.8123 48.0271L-33.8998 48.2672L-33.524 48.4042ZM48.1955 41.5004L48.5713 41.6374L48.7858 41.0491L48.1619 41.1018L48.1955 41.5004ZM42.0509 58.3553L42.0786 58.7543L42.3377 58.7363L42.4267 58.4923L42.0509 58.3553ZM-18.7682 62.5839L-18.7959 62.1849L-19.689 62.247L-19.0469 62.8708L-18.7682 62.5839ZM25.0062 105.109L25.382 105.246L25.4708 105.003L25.2849 104.822L25.0062 105.109ZM19.0904 121.827L-39.0123 63.9498L-39.5769 64.5165L18.5259 122.394L19.0904 121.827ZM-38.9188 64.3701L-33.1482 48.5412L-33.8998 48.2672L-39.6704 64.0961L-38.9188 64.3701ZM-33.4903 48.8028L48.2292 41.899L48.1619 41.1018L-33.5577 48.0056L-33.4903 48.8028ZM47.8197 41.3634L41.6751 58.2183L42.4267 58.4923L48.5713 41.6374L47.8197 41.3634ZM42.0232 57.9562L-18.7959 62.1849L-18.7404 62.9829L42.0786 58.7543L42.0232 57.9562ZM-19.0469 62.8708L24.7275 105.396L25.2849 104.822L-18.4894 62.297L-19.0469 62.8708ZM24.6304 104.972L18.4324 121.974L19.184 122.248L25.382 105.246L24.6304 104.972ZM57.1305 135.251L57.5131 135.135L57.1645 133.99L56.7547 135.114L57.1305 135.251ZM52.7491 147.27L52.6121 147.645L52.9879 147.782L53.1249 147.407L52.7491 147.27ZM35.0148 140.804L34.639 140.667L34.502 141.043L34.8778 141.18L35.0148 140.804ZM74.0199 33.8125L74.1569 33.4367L73.7811 33.2997L73.6441 33.6755L74.0199 33.8125ZM91.7542 40.2777L92.13 40.4147L92.267 40.0389L91.8912 39.9019L91.7542 40.2777ZM76.259 82.7813L75.8832 82.6443L75.4521 83.8268L76.4867 83.1102L76.259 82.7813ZM129.132 98.0717L128.767 98.2357L128.768 98.2381L129.132 98.0717ZM107.706 156.844L107.877 157.205L107.88 157.204L107.706 156.844ZM98.0965 140.389L97.9158 140.033L97.9117 140.035L98.0965 140.389ZM111.241 104.335L111.609 104.178L111.241 104.335ZM79.5294 92.9399L79.3528 92.581L79.3489 92.5829L79.5294 92.9399ZM66.4386 128.848L66.0707 129.005L66.0742 129.013L66.4386 128.848ZM78.5333 158.07C68.0101 154.234 61.0063 146.605 57.5131 135.135L56.7478 135.368C60.3084 147.059 67.4819 154.893 78.2593 158.822L78.5333 158.07ZM56.7547 135.114L52.3733 147.133L53.1249 147.407L57.5063 135.388L56.7547 135.114ZM52.8861 146.894L35.1518 140.429L34.8778 141.18L52.6121 147.645L52.8861 146.894ZM35.3906 140.941L74.3957 33.9495L73.6441 33.6755L34.639 140.667L35.3906 140.941ZM73.8829 34.1883L91.6171 40.6535L91.8912 39.9019L74.1569 33.4367L73.8829 34.1883ZM91.3783 40.1407L75.8832 82.6443L76.6348 82.9183L92.13 40.4147L91.3783 40.1407ZM76.4867 83.1102C86.7601 75.9947 97.1335 74.3788 107.647 78.2115L107.921 77.4599C97.1333 73.5272 86.4902 75.2085 76.0312 82.4525L76.4867 83.1102ZM107.647 78.2115C117.311 81.7348 124.348 88.4004 128.767 98.2356L129.497 97.9078C124.994 87.8859 117.798 81.0609 107.921 77.4599L107.647 78.2115ZM128.768 98.2381C133.212 107.953 133.212 118.961 128.716 131.295L129.467 131.569C134.019 119.084 134.046 107.852 129.496 97.9053L128.768 98.2381ZM128.716 131.295C124.291 143.431 117.225 151.81 107.532 156.484L107.88 157.204C117.796 152.423 124.986 143.86 129.467 131.569L128.716 131.295ZM107.535 156.482C97.8583 161.069 88.1994 161.594 78.5333 158.07L78.2593 158.822C88.1352 162.422 98.016 161.879 107.877 157.205L107.535 156.482ZM79.7658 141.937C86.1242 144.255 92.3055 143.857 98.2813 140.744L97.9117 140.035C92.1361 143.043 86.1884 143.426 80.0399 141.185L79.7658 141.937ZM98.2772 140.746C104.358 137.667 108.776 132.303 111.547 124.703L110.795 124.429C108.08 131.877 103.781 137.062 97.9158 140.033L98.2772 140.746ZM111.547 124.703C114.247 117.297 114.28 110.446 111.609 104.178L110.873 104.491C113.451 110.542 113.438 117.18 110.795 124.429L111.547 124.703ZM111.609 104.178C108.941 97.9188 104.469 93.636 98.2066 91.3531L97.9326 92.1047C103.982 94.31 108.29 98.431 110.873 104.491L111.609 104.178ZM98.2066 91.3531C91.9423 89.0694 85.6491 89.4844 79.3528 92.581L79.7059 93.2989C85.8186 90.2925 91.8855 89.9002 97.9326 92.1047L98.2066 91.3531ZM79.3489 92.5829C73.1387 95.7224 68.6872 101.017 65.9861 108.426L66.7377 108.7C69.3797 101.453 73.7066 96.3317 79.7098 93.2969L79.3489 92.5829ZM65.9861 108.426C63.32 115.739 63.3387 122.607 66.0708 129.005L66.8065 128.691C64.1644 122.503 64.1319 115.848 66.7377 108.7L65.9861 108.426ZM66.0742 129.013C68.9369 135.337 73.5042 139.654 79.7658 141.937L80.0399 141.185C73.9901 138.979 69.5813 134.821 66.803 128.683L66.0742 129.013ZM139.913 167.755L139.55 167.924L139.913 167.755ZM160.897 110.648L161.064 111.012L161.066 111.011L160.897 110.648ZM219.723 131.928L219.361 132.097L219.362 132.099L219.723 131.928ZM198.831 189.235L198.998 189.598L199 189.597L198.831 189.235ZM190.474 173.901L190.662 174.254L190.474 173.901ZM203.058 138.472L202.688 138.625L202.69 138.629L203.058 138.472ZM169.255 125.982L169.443 126.335L169.255 125.982ZM156.671 161.411L157.04 161.258L156.671 161.411ZM165.088 189.791C153.456 185.55 145.195 178.15 140.275 167.586L139.55 167.924C144.565 178.693 152.996 186.234 164.814 190.542L165.088 189.791ZM140.275 167.586C135.354 157.018 134.922 146.176 138.982 135.038L138.231 134.763C134.099 146.098 134.537 157.16 139.55 167.924L140.275 167.586ZM138.982 135.038C143.043 123.9 150.398 115.898 161.064 111.012L160.731 110.285C149.868 115.261 142.363 123.428 138.231 134.763L138.982 135.038ZM161.066 111.011C171.765 106.029 182.917 105.652 194.548 109.892L194.822 109.141C183.002 104.832 171.63 105.21 160.729 110.286L161.066 111.011ZM194.548 109.892C206.18 114.133 214.441 121.533 219.361 132.097L220.086 131.759C215.071 120.99 206.64 113.449 194.822 109.141L194.548 109.892ZM219.362 132.099C224.38 142.702 224.843 153.61 220.746 164.845L221.498 165.119C225.666 153.687 225.196 142.558 220.085 131.757L219.362 132.099ZM220.746 164.845C216.722 175.884 209.367 183.887 198.663 188.872L199 189.597C209.896 184.523 217.401 176.359 221.498 165.119L220.746 164.845ZM198.665 188.871C188.003 193.756 176.819 194.067 165.088 189.791L164.814 190.542C176.729 194.886 188.132 194.576 198.998 189.598L198.665 188.871ZM170.717 175.26C177.848 177.859 184.507 177.533 190.662 174.254L190.286 173.548C184.351 176.709 177.931 177.038 170.991 174.508L170.717 175.26ZM190.662 174.254C196.802 170.982 201.169 165.773 203.764 158.654L203.012 158.38C200.478 165.332 196.235 170.378 190.286 173.548L190.662 174.254ZM203.764 158.654C206.326 151.627 206.217 144.84 203.426 138.314L202.69 138.629C205.397 144.956 205.509 151.533 203.012 158.38L203.764 158.654ZM203.427 138.318C200.669 131.687 195.806 127.1 188.865 124.57L188.591 125.321C195.329 127.778 200.019 132.208 202.689 138.625L203.427 138.318ZM188.865 124.57C181.83 122.005 175.22 122.351 169.067 125.629L169.443 126.335C175.379 123.173 181.751 122.828 188.591 125.321L188.865 124.57ZM169.067 125.629C162.927 128.901 158.56 134.11 155.965 141.229L156.717 141.503C159.251 134.551 163.494 129.505 169.443 126.335L169.067 125.629ZM155.965 141.229C153.438 148.159 153.548 154.945 156.302 161.565L157.04 161.258C154.367 154.829 154.256 148.251 156.717 141.503L155.965 141.229ZM156.302 161.565C159.059 168.194 163.872 172.764 170.717 175.26L170.991 174.508C164.353 172.088 159.71 167.677 157.04 161.258L156.302 161.565ZM230.842 201.734L230.477 201.898L230.478 201.901L230.842 201.734ZM252.175 142.762L252.003 142.401L252.001 142.402L252.175 142.762ZM302.896 164.408L302.515 164.53L302.871 165.645L303.272 164.545L302.896 164.408ZM318.071 122.784L318.208 122.408L317.832 122.271L317.695 122.647L318.071 122.784ZM335.805 129.249L336.181 129.386L336.318 129.01L335.942 128.873L335.805 129.249ZM296.8 236.241L296.663 236.617L297.039 236.754L297.176 236.378L296.8 236.241ZM279.066 229.776L278.69 229.639L278.553 230.015L278.929 230.152L279.066 229.776ZM283.768 216.878L284.144 217.015L284.575 215.833L283.54 216.549L283.768 216.878ZM248.64 195.272L248.272 195.428L248.273 195.432L248.64 195.272ZM280.351 206.666L280.531 207.023L280.351 206.666ZM293.388 170.905L293.02 171.062L293.022 171.065L293.388 170.905ZM261.784 159.217L261.961 159.576L261.965 159.574L261.784 159.217ZM252.234 221.395C242.666 217.907 235.66 211.307 231.205 201.568L230.478 201.901C235.017 211.824 242.18 218.581 251.96 222.146L252.234 221.395ZM231.206 201.57C226.797 191.757 226.815 180.698 231.311 168.365L230.56 168.091C226.008 180.576 225.964 191.855 230.477 201.898L231.206 201.57ZM231.311 168.365C235.772 156.129 242.791 147.733 252.348 143.122L252.001 142.402C242.216 147.123 235.075 155.705 230.56 168.091L231.311 168.365ZM252.346 143.124C262.022 138.537 271.681 138.012 281.347 141.536L281.621 140.784C271.745 137.184 261.864 137.727 252.003 142.401L252.346 143.124ZM281.347 141.536C291.772 145.336 298.827 152.984 302.515 164.53L303.277 164.287C299.521 152.529 292.301 144.678 281.621 140.784L281.347 141.536ZM303.272 164.545L318.447 122.921L317.695 122.647L302.521 164.271L303.272 164.545ZM317.934 123.16L335.668 129.625L335.942 128.873L318.208 122.408L317.934 123.16ZM335.43 129.112L296.424 236.104L297.176 236.378L336.181 129.386L335.43 129.112ZM296.937 235.865L279.203 229.4L278.929 230.152L296.663 236.617L296.937 235.865ZM279.442 229.913L284.144 217.015L283.392 216.741L278.69 229.639L279.442 229.913ZM283.54 216.549C273.268 223.664 262.846 225.263 252.234 221.395L251.96 222.146C262.844 226.114 273.536 224.452 283.996 217.207L283.54 216.549ZM248.273 195.432C251.039 201.724 255.558 206.024 261.82 208.306L262.094 207.555C256.045 205.349 251.686 201.21 249.006 195.111L248.273 195.432ZM261.82 208.306C268.085 210.59 274.331 210.158 280.531 207.023L280.171 206.309C274.158 209.349 268.141 209.759 262.094 207.555L261.82 208.306ZM280.531 207.023C286.742 203.884 291.193 198.59 293.894 191.18L293.143 190.906C290.501 198.153 286.174 203.274 280.171 206.309L280.531 207.023ZM293.894 191.18C296.56 183.867 296.524 177.046 293.755 170.744L293.022 171.065C295.698 177.153 295.749 183.758 293.143 190.906L293.894 191.18ZM293.756 170.747C291.028 164.358 286.526 160.007 280.261 157.723L279.987 158.475C286.034 160.679 290.375 164.865 293.02 171.062L293.756 170.747ZM280.261 157.723C273.903 155.405 267.675 155.785 261.603 158.86L261.965 159.574C267.84 156.598 273.838 156.233 279.987 158.475L280.261 157.723ZM261.607 158.858C255.557 161.841 251.139 167.208 248.334 174.903L249.085 175.177C251.837 167.629 256.135 162.447 261.961 159.576L261.607 158.858ZM248.334 174.903C245.633 182.31 245.6 189.16 248.272 195.428L249.008 195.115C246.429 189.064 246.442 182.426 249.085 175.177L248.334 174.903ZM305.032 260.994L304.747 260.713L304.485 260.979L304.732 261.259L305.032 260.994ZM315.85 249.994L316.149 249.728L315.865 249.408L315.565 249.713L315.85 249.994ZM332.238 256.964L332.118 256.582L332.111 256.585L332.105 256.587L332.238 256.964ZM339.439 251.786L339.728 252.063L339.846 251.939L339.839 251.767L339.439 251.786ZM335.407 162.645L335.544 162.269L334.98 162.063L335.007 162.663L335.407 162.645ZM354.314 169.537L354.713 169.531L354.709 169.256L354.451 169.162L354.314 169.537ZM355.353 235.005L354.953 235.012L354.97 236.104L355.663 235.259L355.353 235.005ZM396.377 184.872L396.514 184.496L396.248 184.399L396.068 184.619L396.377 184.872ZM414.845 191.605L415.146 191.868L415.53 191.429L414.982 191.229L414.845 191.605ZM355.053 259.968L355.352 260.234L355.354 260.232L355.053 259.968ZM338.555 272.883L338.417 272.508L338.412 272.51L338.555 272.883ZM321.78 271.987C315.395 269.659 309.913 265.908 305.332 260.729L304.732 261.259C309.401 266.536 314.993 270.364 321.506 272.739L321.78 271.987ZM305.317 261.274L316.135 250.274L315.565 249.713L304.747 260.713L305.317 261.274ZM315.551 250.259C318.487 253.569 321.653 255.856 325.05 257.094L325.324 256.343C322.078 255.159 319.018 252.962 316.149 249.728L315.551 250.259ZM325.05 257.094C327.661 258.046 330.108 258.14 332.371 257.341L332.105 256.587C330.047 257.313 327.794 257.243 325.324 256.343L325.05 257.094ZM332.357 257.346C334.577 256.651 337.034 254.868 339.728 252.063L339.15 251.509C336.491 254.279 334.147 255.948 332.118 256.582L332.357 257.346ZM339.839 251.767L335.806 162.627L335.007 162.663L339.039 251.804L339.839 251.767ZM335.27 163.02L354.177 169.913L354.451 169.162L335.544 162.269L335.27 163.02ZM353.914 169.544L354.953 235.012L355.753 234.999L354.713 169.531L353.914 169.544ZM355.663 235.259L396.687 185.126L396.068 184.619L355.043 234.752L355.663 235.259ZM396.24 185.248L414.708 191.98L414.982 191.229L396.514 184.496L396.24 185.248ZM414.543 191.341L354.752 259.705L355.354 260.232L415.146 191.868L414.543 191.341ZM354.754 259.703C348.758 266.458 343.312 270.706 338.417 272.508L338.694 273.258C343.771 271.39 349.323 267.027 355.352 260.234L354.754 259.703ZM338.412 272.51C333.5 274.4 327.965 274.242 321.78 271.987L321.506 272.739C327.828 275.043 333.567 275.232 338.699 273.256L338.412 272.51ZM404.041 262.551L403.665 262.414L403.45 263.003L404.074 262.95L404.041 262.551ZM410.185 245.697L410.158 245.298L409.899 245.316L409.81 245.56L410.185 245.697ZM471.004 241.468L471.032 241.867L471.925 241.805L471.283 241.181L471.004 241.468ZM427.23 198.943L426.854 198.806L426.766 199.049L426.951 199.23L427.23 198.943ZM433.428 181.941L433.71 181.658L433.267 181.216L433.052 181.804L433.428 181.941ZM491.531 239.819L491.907 239.956L491.994 239.716L491.813 239.535L491.531 239.819ZM485.76 255.648L485.794 256.046L486.049 256.025L486.136 255.785L485.76 255.648ZM404.417 262.688L410.561 245.834L409.81 245.56L403.665 262.414L404.417 262.688ZM410.213 246.096L471.032 241.867L470.977 241.069L410.158 245.298L410.213 246.096ZM471.283 241.181L427.509 198.656L426.951 199.23L470.726 241.755L471.283 241.181ZM427.606 199.08L433.804 182.078L433.052 181.804L426.854 198.806L427.606 199.08ZM433.146 182.225L491.249 240.102L491.813 239.535L433.71 181.658L433.146 182.225ZM491.155 239.682L485.384 255.511L486.136 255.785L491.907 239.956L491.155 239.682ZM485.727 255.249L404.007 262.153L404.074 262.95L485.794 256.046L485.727 255.249Z" fill="black"/>
</svg>
