<svg width="124" height="62" viewBox="0 0 124 62" fill="none" xmlns="http://www.w3.org/2000/svg">
<path d="M117.125 31.5844L94.529 45.2283L74.6138 57.2543V6.15723L94.6043 18.1145L117.125 31.5844Z" fill="#0F76E8"/>
<path d="M94.6043 18.1145L86.14 23.87L80.9058 27.4279L74.6272 31.6977L74.6138 31.7058V6.15723L94.6043 18.1145Z" fill="#0063E3"/>
<path d="M94.529 45.2283L74.6138 57.2543V31.6882L74.6259 31.6977L94.529 45.2283Z" fill="#0063E3"/>
<path d="M9.40771 44.8118V19.0098H15.8034V44.8118H9.40771ZM14.5679 44.8118V39.9703H19.9824C20.9515 39.9703 21.7388 39.6791 22.3445 39.0967C22.643 38.8112 22.8781 38.4659 23.0346 38.0833C23.1912 37.7008 23.2655 37.2895 23.2529 36.8762C23.269 36.3083 23.1244 35.7474 22.8357 35.2584C22.5546 34.8048 22.1597 34.4329 21.6904 34.1798C21.1406 33.896 20.5279 33.7569 19.9097 33.7753H14.5679V29.1213H19.5154C20.3875 29.1213 21.0964 28.9029 21.6419 28.4661C22.1874 28.0293 22.4598 27.374 22.4589 26.5004C22.4589 25.6016 22.1865 24.9342 21.6419 24.4983C21.0973 24.0624 20.4005 23.844 19.5517 23.8431H14.5719V19.0098H21.113C22.7361 19.0098 24.1269 19.3131 25.2852 19.9198C26.3884 20.4708 27.3194 21.3144 27.977 22.3587C28.6117 23.3988 28.9384 24.598 28.9192 25.8169C28.9192 27.5156 28.3319 28.9353 27.1574 30.0759C25.9829 31.2164 24.2816 31.9319 22.0537 32.2222V29.9963C24.5006 30.2875 26.3902 31.0821 27.7227 32.3799C29.0551 33.6778 29.7213 35.31 29.7213 37.2766C29.7386 38.6469 29.36 39.993 28.6311 41.1527C27.8839 42.3251 26.8191 43.2603 25.5611 43.8491C24.2413 44.4918 22.6845 44.8136 20.8909 44.8144L14.5679 44.8118Z" fill="#2C2C2C"/>
<path d="M45.8195 45.2122C43.9673 45.228 42.1293 44.888 40.405 44.2105C38.7809 43.5738 37.2988 42.6211 36.0443 41.4076C34.8067 40.2032 33.8243 38.761 33.156 37.1675C32.4565 35.4968 32.1039 33.7009 32.1196 31.8893C32.1053 30.0737 32.4721 28.2754 33.1964 26.611C33.8949 25.0065 34.9151 23.5628 36.1937 22.3696C37.4971 21.1562 39.0208 20.2047 40.6822 19.5666C42.4263 18.8928 44.2813 18.5534 46.1506 18.5663C48.4521 18.5663 50.5355 18.9707 52.4009 19.7797C54.2663 20.5886 55.7805 21.7121 56.9433 23.1502L52.5826 27.5184C51.7977 26.5455 50.8203 25.7458 49.7118 25.1698C48.6701 24.6476 47.4588 24.3869 46.0779 24.3878C44.7714 24.369 43.4821 24.6885 42.335 25.3154C41.2301 25.9261 40.3185 26.8351 39.7038 27.939C39.0622 29.0679 38.741 30.3712 38.7401 31.8488C38.7401 33.3534 39.0429 34.676 39.6486 35.8166C40.22 36.921 41.0971 37.837 42.1748 38.455C43.2515 39.0743 44.4929 39.3839 45.8989 39.3839C47.3049 39.3839 48.4983 39.1228 49.479 38.6006C50.4507 38.0887 51.2335 37.279 51.7132 36.2898C52.2219 35.2706 52.4763 34.0572 52.4763 32.6496L56.8733 35.5254L45.1358 35.2342V29.8872H59.0847V30.8741C59.0847 33.9561 58.5274 36.5626 57.413 38.6937C56.2986 40.8247 54.7482 42.4426 52.7616 43.5472C50.7742 44.6572 48.4602 45.2122 45.8195 45.2122Z" fill="#2C2C2C"/>
<path d="M75.0361 45.285C73.1584 45.3047 71.2947 44.9585 69.5489 44.2657C67.9188 43.6133 66.4312 42.6489 65.1694 41.4264C63.9199 40.2097 62.9255 38.7553 62.2447 37.1485C61.1808 34.6762 60.8856 31.94 61.3977 29.297C61.9099 26.6541 63.2055 24.2272 65.1155 22.3331C66.3597 21.1022 67.8443 20.1419 69.4762 19.5126C73.0174 18.2022 76.9095 18.2022 80.4507 19.5126C82.0826 20.1419 83.5672 21.1022 84.8114 22.3331C86.0678 23.5858 87.0648 25.0748 87.7451 26.7146C88.4254 28.3545 88.7756 30.1127 88.7756 31.8885C88.7756 33.6643 88.4254 35.4225 87.7451 37.0623C87.0648 38.7022 86.0678 40.1912 84.8114 41.4439C83.5692 42.6736 82.092 43.6394 80.4682 44.2832C78.7386 44.964 76.8943 45.3041 75.0361 45.285V45.285ZM74.9634 39.4607C76.3928 39.4607 77.6463 39.1461 78.7239 38.517C79.792 37.897 80.6521 36.973 81.1949 35.8623C81.7647 34.7218 82.0496 33.387 82.0496 31.8582C82.0633 30.8166 81.8981 29.7804 81.561 28.795C81.2554 27.9079 80.7666 27.0952 80.1263 26.4101C79.4955 25.742 78.7265 25.2202 77.8733 24.8812C76.9472 24.5195 75.96 24.3405 74.9661 24.354C73.5359 24.354 72.2883 24.6632 71.2232 25.2816C70.1573 25.8985 69.2918 26.8104 68.7306 27.9079C68.1366 29.0368 67.8401 30.3536 67.841 31.8582C67.8256 32.9277 67.9913 33.9921 68.3309 35.0062C68.6334 35.9003 69.123 36.7194 69.7669 37.4087C70.402 38.0798 71.1774 38.6019 72.0375 38.9376C72.9715 39.2972 73.9656 39.4748 74.9661 39.4607H74.9634Z" fill="#2C2C2C"/>
<path d="M87.6997 26.6096C87.2892 25.6375 86.7647 24.7178 86.1371 23.87C85.7349 23.3238 85.2907 22.81 84.8087 22.333C83.5646 21.1017 82.08 20.1411 80.448 19.5113C78.6984 18.8422 76.8388 18.5088 74.9661 18.5284C74.849 18.5284 74.732 18.5284 74.6162 18.5284V24.3567C74.732 24.3567 74.8477 24.3486 74.9661 24.3486C75.9601 24.3356 76.9473 24.515 77.8733 24.8771C78.7265 25.2162 79.4955 25.738 80.1263 26.406C80.4203 26.7182 80.6823 27.0592 80.9083 27.4239C81.1747 27.8555 81.3936 28.3147 81.561 28.7937C81.8981 29.7773 82.0643 30.8115 82.0523 31.8514C82.0523 33.3794 81.7674 34.7141 81.1976 35.8556C80.6556 36.9675 79.7954 37.8925 78.7266 38.5129C77.6499 39.142 76.3964 39.4566 74.9661 39.4566C74.849 39.4566 74.732 39.4566 74.6162 39.4499V45.2755C74.7508 45.2755 74.8975 45.2755 75.0388 45.2755C76.8969 45.2951 78.7412 44.9554 80.4709 44.2751C82.0947 43.6313 83.5719 42.6655 84.8141 41.4358C86.6946 39.5202 87.9711 37.0927 88.4847 34.4558C88.9983 31.8188 88.7262 29.0887 87.7023 26.6055L87.6997 26.6096Z" fill="white"/>
</svg>
